<?xml version="1.0" encoding="UTF-8"?> <svg xmlns="http://www.w3.org/2000/svg" xmlns:xlink="http://www.w3.org/1999/xlink" width="170" height="25.947" viewBox="0 0 170 25.947"><defs><clipPath id="clip-path"><rect id="Rectangle_11" data-name="Rectangle 11" width="170" height="25.947" fill="#fff"></rect></clipPath></defs><g id="Group_18" data-name="Group 18" transform="translate(0 0)"><g id="Mask_Group_17" data-name="Mask Group 17" transform="translate(0 0)" clip-path="url(#clip-path)"><path id="Path_2" data-name="Path 2" d="M116.071,25.287l-2.627-.582c-1.785-.4-1.785-1.122-1.785-1.392a1.228,1.228,0,0,1,.615-1.12,3.428,3.428,0,0,1,3.542.036,2.068,2.068,0,0,1,1.014,1.374l.154.646,2.927-.82-.224-.612c-.9-2.452-2.807-3.7-5.661-3.7a6.252,6.252,0,0,0-3.82,1.123,3.74,3.74,0,0,0-1.579,3.142,3.918,3.918,0,0,0,.574,2.1,3.8,3.8,0,0,0,1.421,1.378,8.092,8.092,0,0,0,1.957.7l2.818.655a3.035,3.035,0,0,1,1.219.582,1.074,1.074,0,0,1,.413.9,1.576,1.576,0,0,1-.611,1.318,3.39,3.39,0,0,1-2.095.525,3.3,3.3,0,0,1-3.533-2.293l-.188-.532-2.883.619.244.654c1.032,2.787,3.183,4.2,6.392,4.2a6.43,6.43,0,0,0,4.257-1.3,4.2,4.2,0,0,0,1.575-3.328c0-1.523-.713-3.5-4.115-4.271" transform="translate(-77.072 -13.681)" fill="#fff"></path><path id="Path_3" data-name="Path 3" d="M159.453,22.777h4.031V34.6h3.074V22.777H170.6v-2.7H159.453Z" transform="translate(-114.087 -14.367)" fill="#fff"></path><path id="Path_4" data-name="Path 4" d="M542.4,22.777h4.031V34.6H549.5V22.777h4.042v-2.7H542.4Z" transform="translate(-388.082 -14.367)" fill="#fff"></path><path id="Path_5" data-name="Path 5" d="M204.876,20.08l-5,14.522h2.863L204,30.718h4.27l1.415,3.884h3.171L207.822,20.08Zm.027,8.156,1.277-3.747,1.279,3.747Z" transform="translate(-143.01 -14.367)" fill="#fff"></path><path id="Path_6" data-name="Path 6" d="M445.549,20.08l-5,14.522h2.863l1.259-3.884h4.27l1.415,3.884h3.171L448.5,20.08Zm.027,8.156,1.277-3.747,1.279,3.747Z" transform="translate(-315.209 -14.367)" fill="#fff"></path><rect id="Rectangle_9" data-name="Rectangle 9" width="3.074" height="14.522" transform="translate(73.031 5.713)" fill="#fff"></rect><path id="Path_7" data-name="Path 7" d="M293.369,28.208a4.527,4.527,0,0,0,1.954-1.45,4.371,4.371,0,0,0,.7-2.35,4.264,4.264,0,0,0-1.252-2.955,5.035,5.035,0,0,0-3.839-1.372h-5.757V34.6h2.963V28.851l2.249.03,2.845,5.722h3.27Zm-5.229-5.43h2.794a2.363,2.363,0,0,1,1.5.445,1.34,1.34,0,0,1,.517,1.156,1.833,1.833,0,0,1-.54,1.354,2.311,2.311,0,0,1-1.691.528H288.14Z" transform="translate(-204.042 -14.368)" fill="#fff"></path><path id="Path_8" data-name="Path 8" d="M400.365,28.208a4.526,4.526,0,0,0,1.954-1.45,4.371,4.371,0,0,0,.7-2.35,4.264,4.264,0,0,0-1.252-2.955,5.035,5.035,0,0,0-3.839-1.372h-5.757V34.6h2.963V28.851l2.249.03,2.845,5.722h3.27Zm-5.229-5.43h2.794a2.363,2.363,0,0,1,1.5.445,1.34,1.34,0,0,1,.517,1.156,1.833,1.833,0,0,1-.54,1.354,2.311,2.311,0,0,1-1.691.528h-2.579Z" transform="translate(-280.597 -14.368)" fill="#fff"></path><path id="Path_9" data-name="Path 9" d="M590.414,21.5a1.421,1.421,0,1,1-.416-1,1.36,1.36,0,0,1,.416,1m-.2,0a1.219,1.219,0,1,0-.357.856,1.168,1.168,0,0,0,.357-.856m-.547.823H589.4l-.316-.7h-.453v.7h-.242V20.68h.7a.56.56,0,0,1,.42.144.452.452,0,0,1,.14.321.46.46,0,0,1-.077.251.412.412,0,0,1-.24.17Zm-1.037-.893h.427a.332.332,0,0,0,.248-.083.284.284,0,0,0,.082-.206.225.225,0,0,0-.086-.192.35.35,0,0,0-.217-.065h-.453Z" transform="translate(-420.414 -14.372)" fill="#fff"></path><path id="Path_10" data-name="Path 10" d="M10.186,4.337a13.009,13.009,0,0,0-6.4,6.571h6.4Z" transform="translate(-2.708 -3.103)" fill="#fff"></path><path id="Path_11" data-name="Path 11" d="M64.055,71.638a13.007,13.007,0,0,0,6.42-6.218h-6.42Z" transform="translate(-45.831 -46.807)" fill="#fff"></path><path id="Path_12" data-name="Path 12" d="M43.432,7.8v8.261H50.77A12.935,12.935,0,0,0,35.232.35V7.8Z" transform="translate(-25.208 0)" fill="#fff"></path><path id="Path_13" data-name="Path 13" d="M7.478,44.641V36.378H.266A12.97,12.97,0,0,0,15.679,51.689V44.641Z" transform="translate(0 -26.028)" fill="#fff"></path><rect id="Rectangle_10" data-name="Rectangle 10" width="5.655" height="5.715" transform="translate(10.023 10.35)" fill="#fff"></rect><path id="Path_14" data-name="Path 14" d="M347.823,29.527a6.366,6.366,0,0,1-1.864,3.239,5.787,5.787,0,0,1-4.1,1.484,6.149,6.149,0,0,1-4.861-2,8.081,8.081,0,0,1-1.77-5.524,8.008,8.008,0,0,1,2.013-5.848,6.754,6.754,0,0,1,9.743.609,5.692,5.692,0,0,1,.877,1.9l-2.913.8a4.121,4.121,0,0,0-.741-1.572A3.286,3.286,0,0,0,339.26,23a6.508,6.508,0,0,0-.934,3.769,5.711,5.711,0,0,0,.985,3.651,3.089,3.089,0,0,0,2.5,1.214,2.837,2.837,0,0,0,2.375-1.042,4.573,4.573,0,0,0,.75-1.681Z" transform="translate(-239.854 -13.654)" fill="#fff"></path><path id="Path_15" data-name="Path 15" d="M496.815,20.12h10.33V22.8h-7.322V26h7.319v2.516h-7.319v6.074h-3.008Z" transform="translate(-355.467 -14.396)" fill="#fff"></path></g></g></svg> 